<?xml version="1.0" encoding="UTF-8" standalone="no"?>
<!-- Created with Inkscape (http://www.inkscape.org/) -->

<svg
   width="61.9156mm"
   height="43.96114mm"
   viewBox="0 0 61.915603 43.96114"
   version="1.1"
   id="svg1"
   xml:space="preserve"
   xmlns="http://www.w3.org/2000/svg"
   xmlns:svg="http://www.w3.org/2000/svg"><defs
     id="defs1" /><g
     id="layer1"
     transform="translate(-373.06916,-390.67317)"><path
       id="path7"
       style="display:inline;fill:#0094ff;fill-opacity:0.992157;stroke-width:0.382291"
       d="m 405.14885,390.67316 a 17.611895,17.252468 0 0 0 -17.55086,16.5716 h -0.54881 a 13.980102,13.694793 0 0 1 0.54726,0.0186 13.980102,13.694793 0 0 0 -0.54726,-0.0186 13.980102,13.694793 0 0 0 -13.98002,13.69477 13.980102,13.694793 0 0 0 13.98002,13.69477 h 33.95555 a 13.980102,13.694793 0 0 0 13.98003,-13.69477 13.980102,13.694793 0 0 0 -12.24163,-13.58367 17.611895,17.252468 0 0 0 -17.59428,-16.6827 z m 14.04617,16.69872 a 13.980102,13.694793 0 0 0 -0.54725,0.0909 13.980102,13.694793 0 0 1 0.54725,-0.0909 z m -29.96871,0.0599 a 13.980102,13.694793 0 0 1 0.39894,0.0672 13.980102,13.694793 0 0 0 -0.39894,-0.0672 z m 28.15539,0.30076 a 13.980102,13.694793 0 0 0 -0.5793,0.1633 13.980102,13.694793 0 0 1 0.5793,-0.1633 z m -29.84469,0.19275 a 17.611895,17.252468 0 0 0 0.0553,1.17254 17.611895,17.252468 0 0 1 -0.0553,-1.17254 z m 27.9957,0.4346 a 13.980102,13.694793 0 0 0 -0.44028,0.17828 13.980102,13.694793 0 0 1 0.44028,-0.17828 z m -22.78723,0.0941 a 13.980102,13.694793 0 0 1 0.36896,0.16795 13.980102,13.694793 0 0 0 -0.36896,-0.16795 z m 2.93677,0.33073 h 5.96036 c 0.75087,0 1.35547,0.60408 1.35547,1.35496 v 0.52348 c 0,0.75087 -0.6046,1.35495 -1.35547,1.35495 h -3.99718 -1.96318 c -0.75088,0 -1.35496,-0.60408 -1.35496,-1.35495 v -0.52348 c 0,-0.27719 0.0831,-0.53352 0.22479,-0.74776 0.24217,-0.36613 0.65648,-0.6072 1.13017,-0.6072 z m 17.81906,0.60461 a 13.980102,13.694793 0 0 0 -0.28525,0.19844 13.980102,13.694793 0 0 1 0.28525,-0.19844 z m -25.87542,0.0599 a 17.611895,17.252468 0 0 0 0.108,0.86197 17.611895,17.252468 0 0 1 -0.108,-0.86197 z m 24.4135,1.00149 a 13.980102,13.694793 0 0 0 -0.44752,0.39171 13.980102,13.694793 0 0 1 0.44752,-0.39171 z m -24.2533,0.19999 a 17.611895,17.252468 0 0 0 0.23616,1.15549 17.611895,17.252468 0 0 0 0.32401,1.13326 17.611895,17.252468 0 0 1 -0.32401,-1.13326 17.611895,17.252468 0 0 1 -0.23616,-1.15549 z m 22.90816,1.07125 a 13.980102,13.694793 0 0 0 -0.39377,0.4315 13.980102,13.694793 0 0 1 0.39377,-0.4315 z M 398.418,412.9896 a 13.980102,13.694793 0 0 1 0.20877,0.29972 13.980102,13.694793 0 0 0 -0.20877,-0.29972 z m -9.96012,0.27853 a 17.611895,17.252468 0 0 0 0.30386,0.81856 17.611895,17.252468 0 0 1 -0.30386,-0.81856 z m 20.95428,0.0475 a 13.980102,13.694793 0 0 0 -0.19741,0.27337 13.980102,13.694793 0 0 1 0.19741,-0.27337 z m -10.28723,0.74828 a 13.980102,13.694793 0 0 1 0.18552,0.31419 13.980102,13.694793 0 0 0 -0.18552,-0.31419 z m -10.23245,0.34571 a 17.611895,17.252468 0 0 0 0.49454,1.07126 h 10.4836 1.77199 c 0.75087,0 1.35547,0.6046 1.35547,1.35547 v 0.52348 c 0,0.75088 -0.6046,1.35496 -1.35547,1.35496 h -0.80719 -9.39219 -4.39405 -2.2841 c -0.75087,0 -1.35547,-0.60408 -1.35547,-1.35496 v -0.52348 c 0,-0.75087 0.6046,-1.35547 1.35547,-1.35547 h 2.2841 2.33784 a 17.611895,17.252468 0 0 1 -0.49454,-1.07126 z m 19.45411,0.73639 a 13.980102,13.694793 0 0 0 -0.185,0.43719 13.980102,13.694793 0 0 1 0.185,-0.43719 z m -0.65681,1.67587 a 13.980102,13.694793 0 0 0 -0.16795,0.57154 13.980102,13.694793 0 0 1 0.16795,-0.57154 z m -0.44183,1.80461 a 13.980102,13.694793 0 0 0 -0.0941,0.54105 13.980102,13.694793 0 0 1 0.0941,-0.54105 z m -6.28437,1.07901 a 13.980102,13.694793 0 0 1 0.0202,0.23667 13.980102,13.694793 0 0 0 -0.0202,-0.23667 z m -16.1985,2.4722 h 2.2841 8.28942 5.56607 0.73794 c 0.75087,0 1.35547,0.60459 1.35547,1.35547 v 0.52296 c 0,0.35101 -0.13555,0.66721 -0.35295,0.90744 -0.24766,0.27368 -0.60266,0.44804 -1.00252,0.44804 h -1.43971 -13.15372 -2.2841 c -0.75087,0 -1.35547,-0.6046 -1.35547,-1.35548 v -0.52296 c 0,-0.75088 0.6046,-1.35547 1.35547,-1.35547 z m 23.59701,4.43487 a 13.980102,13.694793 0 0 0 0.26097,0.50229 13.980102,13.694793 0 0 1 -0.26097,-0.50229 z m -8.82478,0.33693 a 13.980102,13.694793 0 0 1 -0.20774,0.39532 13.980102,13.694793 0 0 0 0.20774,-0.39532 z m 9.6945,1.23403 a 13.980102,13.694793 0 0 0 0.36483,0.53795 13.980102,13.694793 0 0 1 -0.36483,-0.53795 z m -10.65827,0.40153 a 13.980102,13.694793 0 0 1 -0.13694,0.20929 13.980102,13.694793 0 0 0 0.13694,-0.20929 z m 11.75071,1.07383 a 13.980102,13.694793 0 0 0 0.40979,0.47543 13.980102,13.694793 0 0 1 -0.40979,-0.47543 z m -12.94495,0.4284 a 13.980102,13.694793 0 0 1 -0.29507,0.30386 13.980102,13.694793 0 0 0 0.29507,-0.30386 z m 14.33143,0.99374 a 13.980102,13.694793 0 0 0 0.32142,0.2961 13.980102,13.694793 0 0 1 -0.32142,-0.2961 z m -15.63781,0.24856 a 13.980102,13.694793 0 0 1 -0.28164,0.23978 13.980102,13.694793 0 0 0 0.28164,-0.23978 z m 17.41289,1.10536 a 13.980102,13.694793 0 0 0 0.36845,0.20826 13.980102,13.694793 0 0 1 -0.36845,-0.20826 z m -19.06137,0.0935 a 13.980102,13.694793 0 0 1 -0.32814,0.18707 13.980102,13.694793 0 0 0 0.32814,-0.18707 z m 20.65094,0.76533 a 13.980102,13.694793 0 0 0 0.57774,0.24443 13.980102,13.694793 0 0 1 -0.57774,-0.24443 z m -22.20536,0.0532 a 13.980102,13.694793 0 0 1 -0.39481,0.17777 13.980102,13.694793 0 0 0 0.39481,-0.17777 z m 23.91223,0.60461 a 13.980102,13.694793 0 0 0 0.63304,0.18707 13.980102,13.694793 0 0 1 -0.63304,-0.18707 z m -25.89558,0.13591 a 13.980102,13.694793 0 0 1 -0.24184,0.0584 13.980102,13.694793 0 0 0 0.24184,-0.0584 z m 27.74301,0.31265 a 13.980102,13.694793 0 0 0 0.56999,0.10076 13.980102,13.694793 0 0 1 -0.56999,-0.10076 z m -29.43128,0.0475 a 13.980102,13.694793 0 0 1 -0.44958,0.0651 13.980102,13.694793 0 0 0 0.44958,-0.0651 z" /></g></svg>
