<?xml version="1.0" encoding="UTF-8" standalone="no"?>
<!-- Created with Inkscape (http://www.inkscape.org/) -->

<svg
   width="204.94833mm"
   height="43.96114mm"
   viewBox="0 0 204.94834 43.96114"
   version="1.1"
   id="svg1"
   xml:space="preserve"
   xmlns="http://www.w3.org/2000/svg"
   xmlns:svg="http://www.w3.org/2000/svg"><defs
     id="defs1" /><g
     id="layer1"
     transform="translate(-373.06915,-241.29181)"><g
       id="g6"
       transform="translate(366.22638,101.76513)"><path
         id="path4"
         style="display:inline;fill:#0094ff;fill-opacity:0.992157;stroke-width:0.382291"
         d="m 38.922474,139.52667 a 17.611895,17.252468 0 0 0 -17.550867,16.5716 h -0.548803 a 13.980102,13.694793 0 0 1 0.547253,0.0186 13.980102,13.694793 0 0 0 -0.547253,-0.0186 13.980102,13.694793 0 0 0 -13.9800256,13.69477 13.980102,13.694793 0 0 0 13.9800256,13.69477 h 33.95555 a 13.980102,13.694793 0 0 0 13.980025,-13.69477 13.980102,13.694793 0 0 0 -12.24163,-13.58367 17.611895,17.252468 0 0 0 -17.594275,-16.6827 z m 14.046171,16.69872 a 13.980102,13.694793 0 0 0 -0.547253,0.0909 13.980102,13.694793 0 0 1 0.547253,-0.0909 z m -29.968713,0.0599 a 13.980102,13.694793 0 0 1 0.398942,0.0672 13.980102,13.694793 0 0 0 -0.398942,-0.0672 z m 28.155387,0.30076 a 13.980102,13.694793 0 0 0 -0.579293,0.1633 13.980102,13.694793 0 0 1 0.579293,-0.1633 z m -29.84469,0.19275 a 17.611895,17.252468 0 0 0 0.05529,1.17254 17.611895,17.252468 0 0 1 -0.05529,-1.17254 z m 27.995707,0.4346 a 13.980102,13.694793 0 0 0 -0.440283,0.17828 13.980102,13.694793 0 0 1 0.440283,-0.17828 z m -22.787239,0.0941 a 13.980102,13.694793 0 0 1 0.368969,0.16795 13.980102,13.694793 0 0 0 -0.368969,-0.16795 z m 2.936771,0.33073 h 5.96036 c 0.750874,0 1.355473,0.60408 1.355473,1.35496 v 0.52348 c 0,0.75087 -0.604599,1.35495 -1.355473,1.35495 h -3.997172 -1.963188 c -0.750874,0 -1.354956,-0.60408 -1.354956,-1.35495 v -0.52348 c 0,-0.27719 0.08308,-0.53352 0.224793,-0.74776 0.242165,-0.36613 0.656478,-0.6072 1.130163,-0.6072 z m 17.819068,0.60461 a 13.980102,13.694793 0 0 0 -0.285254,0.19844 13.980102,13.694793 0 0 1 0.285254,-0.19844 z m -25.875423,0.0599 a 17.611895,17.252468 0 0 0 0.108003,0.86197 17.611895,17.252468 0 0 1 -0.108003,-0.86197 z m 24.413496,1.00149 a 13.980102,13.694793 0 0 0 -0.447517,0.39171 13.980102,13.694793 0 0 1 0.447517,-0.39171 z m -24.253299,0.19999 a 17.611895,17.252468 0 0 0 0.236161,1.15549 17.611895,17.252468 0 0 0 0.324011,1.13326 17.611895,17.252468 0 0 1 -0.324011,-1.13326 17.611895,17.252468 0 0 1 -0.236161,-1.15549 z m 22.908162,1.07125 a 13.980102,13.694793 0 0 0 -0.393774,0.4315 13.980102,13.694793 0 0 1 0.393774,-0.4315 z m -12.276253,1.26764 a 13.980102,13.694793 0 0 1 0.208772,0.29972 13.980102,13.694793 0 0 0 -0.208772,-0.29972 z m -9.960116,0.27853 a 17.611895,17.252468 0 0 0 0.303858,0.81856 17.611895,17.252468 0 0 1 -0.303858,-0.81856 z m 20.954277,0.0475 a 13.980102,13.694793 0 0 0 -0.197404,0.27337 13.980102,13.694793 0 0 1 0.197404,-0.27337 z m -10.287228,0.74828 a 13.980102,13.694793 0 0 1 0.185519,0.31419 13.980102,13.694793 0 0 0 -0.185519,-0.31419 z m -10.23245,0.34571 a 17.611895,17.252468 0 0 0 0.494543,1.07126 h 10.483598 1.771985 c 0.750874,0 1.355473,0.6046 1.355473,1.35547 v 0.52348 c 0,0.75088 -0.604599,1.35496 -1.355473,1.35496 h -0.807186 -9.392191 -4.394047 -2.284099 c -0.750874,0 -1.355473,-0.60408 -1.355473,-1.35496 v -0.52348 c 0,-0.75087 0.604599,-1.35547 1.355473,-1.35547 h 2.284099 2.337841 a 17.611895,17.252468 0 0 1 -0.494543,-1.07126 z m 19.45411,0.73639 a 13.980102,13.694793 0 0 0 -0.185002,0.43719 13.980102,13.694793 0 0 1 0.185002,-0.43719 z m -0.656808,1.67587 a 13.980102,13.694793 0 0 0 -0.167948,0.57154 13.980102,13.694793 0 0 1 0.167948,-0.57154 z M 41.021571,167.48 a 13.980102,13.694793 0 0 0 -0.09405,0.54105 13.980102,13.694793 0 0 1 0.09405,-0.54105 z m -6.284371,1.07901 a 13.980102,13.694793 0 0 1 0.02015,0.23667 13.980102,13.694793 0 0 0 -0.02015,-0.23667 z m -16.198495,2.4722 h 2.284099 8.289416 5.566069 0.737939 c 0.750874,0 1.355473,0.60459 1.355473,1.35547 v 0.52296 c 0,0.35101 -0.135553,0.66721 -0.35295,0.90744 -0.247656,0.27368 -0.602658,0.44804 -1.002523,0.44804 H 33.976523 20.822804 18.538705 c -0.750874,0 -1.355473,-0.6046 -1.355473,-1.35548 v -0.52296 c 0,-0.75088 0.604599,-1.35547 1.355473,-1.35547 z m 23.59701,4.43487 a 13.980102,13.694793 0 0 0 0.260966,0.50229 13.980102,13.694793 0 0 1 -0.260966,-0.50229 z m -8.824785,0.33693 a 13.980102,13.694793 0 0 1 -0.207739,0.39532 13.980102,13.694793 0 0 0 0.207739,-0.39532 z m 9.694499,1.23403 a 13.980102,13.694793 0 0 0 0.364836,0.53795 13.980102,13.694793 0 0 1 -0.364836,-0.53795 z m -10.658264,0.40153 a 13.980102,13.694793 0 0 1 -0.136943,0.20929 13.980102,13.694793 0 0 0 0.136943,-0.20929 z m 11.750704,1.07383 a 13.980102,13.694793 0 0 0 0.409794,0.47543 13.980102,13.694793 0 0 1 -0.409794,-0.47543 z m -12.944947,0.4284 a 13.980102,13.694793 0 0 1 -0.295072,0.30386 13.980102,13.694793 0 0 0 0.295072,-0.30386 z m 14.331425,0.99374 a 13.980102,13.694793 0 0 0 0.321428,0.2961 13.980102,13.694793 0 0 1 -0.321428,-0.2961 z m -15.637805,0.24856 a 13.980102,13.694793 0 0 1 -0.281636,0.23978 13.980102,13.694793 0 0 0 0.281636,-0.23978 z m 17.412891,1.10536 a 13.980102,13.694793 0 0 0 0.368453,0.20826 13.980102,13.694793 0 0 1 -0.368453,-0.20826 z m -19.061369,0.0935 a 13.980102,13.694793 0 0 1 -0.328145,0.18707 13.980102,13.694793 0 0 0 0.328145,-0.18707 z M 48.849,182.14729 a 13.980102,13.694793 0 0 0 0.577742,0.24443 13.980102,13.694793 0 0 1 -0.577742,-0.24443 z m -22.205363,0.0532 a 13.980102,13.694793 0 0 1 -0.394808,0.17777 13.980102,13.694793 0 0 0 0.394808,-0.17777 z m 23.912235,0.60461 a 13.980102,13.694793 0 0 0 0.633037,0.18707 13.980102,13.694793 0 0 1 -0.633037,-0.18707 z m -25.895577,0.13591 a 13.980102,13.694793 0 0 1 -0.241845,0.0584 13.980102,13.694793 0 0 0 0.241845,-0.0584 z m 27.74301,0.31265 a 13.980102,13.694793 0 0 0 0.569991,0.10076 13.980102,13.694793 0 0 1 -0.569991,-0.10076 z m -29.431279,0.0475 a 13.980102,13.694793 0 0 1 -0.449585,0.0651 13.980102,13.694793 0 0 0 0.449585,-0.0651 z" /><text
         xml:space="preserve"
         style="font-size:38.8056px;font-family:sans-serif;-inkscape-font-specification:Normal;text-align:start;letter-spacing:-2.96333px;writing-mode:lr-tb;direction:ltr;text-anchor:start;fill:#0094ff;fill-opacity:0.992157;stroke-width:0.264583"
         x="74.09111"
         y="174.81757"
         id="text6"><tspan
           id="tspan6"
           style="font-style:normal;font-variant:normal;font-weight:normal;font-stretch:normal;font-size:38.8056px;font-family:'Space Grotesk';-inkscape-font-specification:'Space Grotesk';letter-spacing:-2.96333px;direction:ltr;stroke-width:0.264583"
           x="74.09111"
           y="174.81757"><tspan
   style="font-style:normal;font-variant:normal;font-weight:bold;font-stretch:normal;font-family:'Space Grotesk';-inkscape-font-specification:'Space Grotesk Bold'"
   id="tspan5">host</tspan>unit</tspan></text></g></g></svg>
